<?xml version="1.0" encoding="utf-8"?>
<!-- Generator: Adobe Illustrator 27.3.1, SVG Export Plug-In . SVG Version: 6.00 Build 0)  -->
<svg version="1.1" id="katman_1" xmlns="http://www.w3.org/2000/svg" xmlns:xlink="http://www.w3.org/1999/xlink" x="0px" y="0px"
	 viewBox="0 0 595.3 5610.4" style="enable-background:new 0 0 595.3 5610.4;" xml:space="preserve">
<style type="text/css">
	.st0{fill:#E2281E;}
	.st1{fill:#FFFFFF;}
</style>
<symbol  id="Yeni_Sembol" viewBox="-3.2 -357 6.3 714">
	<g>
		<rect x="-2.8" y="-353.8" class="st0" width="5.3" height="707.7"/>
		<path class="st0" d="M3.2-357h-6.3v714h6.3V-357z M-2.2-350.7h4.3v701.4h-4.3V-350.7z"/>
	</g>
</symbol>
<g>
	<path class="st1" d="M48,608.3l12.3,26.9l12.4-26.9h22.8v41.4H83l0.3-31h-2.1l-15.6,31H55.1l-15.6-31h-2.2l0.3,31H25.1v-41.4H48z"
		/>
	<path class="st1" d="M101,629.6c0.3-4.3,1.7-6.6,5.2-8.3c2.6-1.2,7.6-1.7,16.5-1.7c9.6,0,11.9,0.4,14.4,2.9c1.9,2,2.5,4.2,2.5,9.6
		v17.7H129v-4h-0.4c-0.9,1.9-2.1,3-4.1,3.8c-1.8,0.8-4.6,1-11.8,1c-9.8,0-12.8-2.2-12.8-9.1c0-5.3,2-8.2,6.3-9.3
		c2.7-0.8,5.5-0.9,13.6-0.9c5.1,0,6.6,0.4,8.3,2.3h0.5v-1.5c0-4.6-0.9-5.2-7.5-5.2c-7.9,0-8.7,0.2-9,2.9L101,629.6L101,629.6z
		 M110.8,640.4c0,2.4,1.7,3,7.6,3c7.8,0,9.9-0.8,9.9-3.4c0-1.2-0.7-2-1.9-2.5c-0.7-0.2-2.4-0.3-7.1-0.3
		C112.6,637.3,110.8,638,110.8,640.4L110.8,640.4z"/>
	<path class="st1" d="M155.3,608.3v21.6h2.4l10.1-9.6h14.7L167.2,634l17.3,15.7h-14.6l-11.8-11.8h-2.8v11.8h-11v-41.4L155.3,608.3
		L155.3,608.3z"/>
	<path class="st1" d="M196.1,620.4v4.4h0.6c2.1-3.7,5.2-5.2,11.3-5.2c8.9,0,11.9,3,11.9,11.8v2h-10.4c0-4.4-1.2-5.5-5.8-5.5
		c-2.5,0-4.5,0.8-5.6,2.1c-1.1,1.4-1.4,3-1.4,7.6v12.2h-11v-29.4H196.1L196.1,620.4z"/>
	<path class="st1" d="M234,608.3v8.3h-11v-8.3H234z M234,620.4v29.4h-11v-29.4H234z"/>
</g>
<g>
	<path class="st1" d="M324.6,619.2c-3.4-4.7-8.7-5.3-9.5-5.4c-11.2-0.1-22.4-0.2-33.5-0.3v40.9h31.9c1.3,0,3.1-0.2,5.1-0.8
		c1.3-0.4,3-0.9,4.5-2.1c3-2.3,3.7-5.9,3.9-7.3v-16.8C327,626.3,327.1,622.6,324.6,619.2L324.6,619.2z M320.3,639.7
		c0.3,9.2-8.1,8.5-8.1,8.5h-23.8v-28.3h23.3c8.6,0.7,8.6,7.6,8.6,7.6V639.7L320.3,639.7z"/>
	<path class="st1" d="M281.5,654.9H281V613l34,0.3c1.5,0.1,6.6,1,10,5.6c2.4,3.3,2.5,6.8,2.5,8.6v16.8c-0.3,2-1.2,5.5-4.1,7.7
		c-1.6,1.2-3.4,1.8-4.6,2.1c-1.7,0.5-3.5,0.8-5.3,0.8H281.5L281.5,654.9z M282,653.9h31.4c1.7,0,3.4-0.3,5-0.8
		c1.2-0.4,2.9-0.9,4.3-2c2.6-2,3.5-5.3,3.7-7v-16.7c0.1-1.7-0.1-4.9-2.3-8l0,0c-3.1-4.3-7.8-5.1-9.2-5.2l-33-0.2
		C282,614,282,653.9,282,653.9z M312.8,648.7c-0.3,0-0.5,0-0.5,0H288v-29.3h23.8c9,0.7,9.1,8,9.1,8.1v12.2c0.1,3-0.7,5.4-2.4,6.9
		C316.5,648.4,313.9,648.7,312.8,648.7L312.8,648.7z M288.9,647.6h23.3c0.1,0,3.3,0.3,5.5-1.8c1.4-1.4,2.1-3.4,2.1-6.2v-12.3
		c0-0.3-0.1-6.4-8.1-7.1h-22.8V647.6L288.9,647.6z"/>
</g>
<g>
	<path class="st1" d="M377.4,642.4h6.2c0,0,0.5,10.8-9.1,11.5l-24.7,0.5c0,0-15.2,1.6-15-13.9v-14.2c0,0-1.6-12.8,14-12.8H367
		c0,0,16.2-1.6,16.6,11.8l-6.6-0.1c0,0,0.7-6.1-8.9-5.5l-17,0.1c0,0-6.1-0.5-8.1,2.2c0,0-1.5,1-1.8,4.9l-0.1,3.7h27.6l-0.1,5.7
		l-27.7,0.1l0.1,4c0,0.6,0,1.5,0.3,2.4c0.4,1.6,1.2,2.6,1.8,3.2c0.4,0.3,0.8,0.7,1.4,1c1.9,1.1,3.7,1.3,4.8,1.3
		c7.4,0.1,14.8,0.1,22.2,0.1c0.2,0,0.5,0,0.7-0.1c1.2-0.2,2.2-0.7,2.9-1.2c0.4-0.3,0.9-0.7,1.3-1.3
		C377.4,644.5,377.4,643,377.4,642.4L377.4,642.4z"/>
	<path class="st1" d="M348.6,654.9c-2.2,0-6.8-0.4-10.2-3.5c-2.7-2.5-4.1-6.2-4-11v-14.2c0-0.1-0.6-5.2,2.8-9
		c2.5-2.8,6.4-4.3,11.7-4.3H367c0.3,0,8.3-0.8,13.3,3.6c2.4,2.1,3.7,5,3.8,8.6v0.5l-7.7-0.1l0.1-0.5c0-0.1,0.2-1.7-1.2-3.1
		c-1.4-1.4-3.8-2-7.2-1.8l-17,0.1c-0.1,0-5.9-0.4-7.8,2l-0.1,0.1c0,0-1.3,1-1.6,4.5l-0.1,3.2h27.6l-0.1,6.7l-27.7,0.1l0.1,3.5
		c0,0.8,0.1,1.6,0.3,2.3c0.3,1.1,0.9,2.1,1.7,3c0.4,0.3,0.8,0.6,1.2,0.9c1.3,0.8,2.9,1.2,4.5,1.2l0,0l22.3,0.2c0.2,0,0.4,0,0.6-0.1
		c0.9-0.2,1.8-0.6,2.7-1.1c0.5-0.3,0.8-0.7,1.2-1.2c0.8-1.1,1-2.4,1-3.2v-0.5h7.2v0.5c0,0.1,0.4,11.3-9.6,12.1l-24.7,0.5
		C349.8,654.9,349.3,654.9,348.6,654.9L348.6,654.9z M368.5,613.9c-0.9,0-1.4,0.1-1.4,0.1h-18.2c-5,0-8.7,1.3-11,3.9
		c-3.1,3.5-2.5,8.3-2.5,8.3v14.2c-0.1,4.5,1.2,7.9,3.7,10.2c4.2,3.9,10.7,3.2,10.8,3.2l24.7-0.5c8-0.6,8.6-8.5,8.6-10.5H378
		c-0.1,0.9-0.3,2.1-1.2,3.3c-0.4,0.5-0.9,1-1.4,1.4c-1,0.7-2,1.1-3.1,1.3c-0.3,0-0.5,0.1-0.8,0.1l-22.3-0.2l0,0
		c-1.8,0-3.6-0.5-5-1.3c-0.5-0.3-1-0.7-1.5-1.1c-0.9-1.1-1.5-2.2-1.9-3.5c-0.2-0.8-0.4-1.7-0.3-2.6l-0.1-4.5l27.8-0.1v-4.7h-27.6
		l0.1-4.2c0.3-3.6,1.6-5,2-5.2c2.2-2.8,8.3-2.4,8.5-2.4l17-0.1c3.7-0.2,6.4,0.5,7.9,2.2c1.2,1.2,1.4,2.6,1.4,3.4h5.5
		c-0.2-3.1-1.4-5.6-3.4-7.4C376.2,614.3,371,613.9,368.5,613.9L368.5,613.9z"/>
</g>
<g>
	<path class="st1" d="M428.5,626.3h7c0,0,0.3-3.9-1.4-7c0,0-2.6-5.7-9.7-5.5h-20.1c-1.1,0-2.4,0-3.8,0.2c-2.7,0.3-5,1.1-6.7,1.8
		c-0.8,0.4-1.9,1-2.8,2c-2.5,2.6-2.8,5.9-2.8,6.9v15.4c0,0-0.1,7.5,3.2,10.2c0,0,2.1,3.2,7.9,4h23.8c0,0,5.3,0.4,8.9-3
		c0.5-0.4,1-0.9,1.4-1.5c1.5-2,1.7-4.2,1.7-5.3c0-0.9,0-1.8,0-2.7c-2.2,0-4.4,0-6.6,0c0,0.5,0,1.3-0.3,2.1c-0.1,0.4-0.3,0.8-0.5,1.1
		c-0.4,0.6-1.3,1.8-2.9,2.5c-0.5,0.2-1,0.3-1.4,0.4c-7.1,0-14.2,0-21.3-0.1c0,0-6.2,0.3-7.1-5.9l-0.1-13.9c0,0,0-8.3,8.7-8.1
		L421,620C421.1,620.1,428.1,619.9,428.5,626.3L428.5,626.3z"/>
	<path class="st1" d="M423.7,655c-0.4,0-0.6,0-0.6,0h-23.7c-5.6-0.8-7.9-3.7-8.2-4.2c-3.4-2.8-3.3-10.2-3.3-10.6v-15.4
		c0-1.6,0.5-4.8,2.9-7.3c0.9-0.9,1.9-1.6,3-2.1c2.2-0.9,4.5-1.5,6.8-1.8c1.3-0.2,2.6-0.2,3.8-0.2h20c7.3-0.2,10.1,5.7,10.2,5.8
		c1.7,3.1,1.4,7.1,1.4,7.2v0.5h-8v-0.5c-0.4-5.8-6.6-5.7-6.9-5.7l-17.4-0.1c-2.5,0-4.5,0.6-5.9,2c-2.3,2.2-2.3,5.6-2.3,5.6l0.1,13.9
		c0.8,5.5,6.3,5.4,6.6,5.4h21.4c0.4-0.1,0.8-0.2,1.2-0.3c1.4-0.5,2.2-1.5,2.7-2.3c0.2-0.3,0.3-0.7,0.4-1c0.2-0.6,0.3-1.3,0.3-1.9
		v-0.5h7.6v3.2c0,1.5-0.3,3.6-1.8,5.6c-0.4,0.6-0.9,1.1-1.5,1.6C429.4,654.7,425.3,654.9,423.7,655L423.7,655z M423.2,653.9
		c0.1,0,5.1,0.3,8.6-2.9c0.5-0.4,1-0.9,1.4-1.5c1.3-1.8,1.6-3.7,1.6-5v-2.2h-5.6c0,0.6-0.1,1.2-0.3,1.7c-0.1,0.4-0.3,0.8-0.5,1.2
		c-0.6,0.9-1.5,2-3.1,2.7c-0.5,0.2-1,0.3-1.6,0.4h-21.4c0,0-6.6,0.2-7.6-6.3l-0.1-13.9c0-0.2,0-3.8,2.6-6.3c1.6-1.6,3.8-2.4,6.6-2.3
		l17.4,0.1c0.1,0,7.1-0.1,7.9,6.1h6.1c0-1.1-0.1-4-1.3-6.3c-0.1-0.2-2.6-5.4-9.2-5.2h-20.1c-1.2,0-2.5,0-3.7,0.2
		c-2.2,0.3-4.5,0.9-6.6,1.7c-1,0.5-1.9,1.1-2.7,1.9c-2.2,2.3-2.6,5.1-2.6,6.6V640c0,0.1,0,7.4,3,9.8l0.1,0.1c0,0,2.1,3,7.5,3.8
		L423.2,653.9L423.2,653.9z"/>
</g>
<g>
	<path class="st1" d="M488.2,626.3c0,0,0.3-5.4-3.8-9.3c0,0-3-3.4-10.8-3.2c-6.1,0-12.3-0.1-18.4-0.1c-0.5,0-1,0-1.6,0.1
		c-1.6,0.1-3,0.3-4.3,0.6c-1,0.3-3.5,1.1-5.6,3.3c-2.6,2.8-3,6-3.1,7c0,5.9,0,11.7,0,17.6c0,0-0.1,12.1,13.7,12.1h18.8
		c1.2,0.1,2.7,0.1,4.5-0.3c2.6-0.5,4.6-1.6,5.9-2.4c0.6-0.3,1.4-0.9,2.1-1.8c1.4-1.6,1.8-3.3,2.2-5c0.3-1.1,0.5-2.7,0.5-4.6
		L488.2,626.3L488.2,626.3z M481.3,628.9c-0.1,4.2-0.3,8.4-0.4,12.6c0,0.8-0.2,2.4-1.4,3.8c-1.2,1.3-2.8,1.7-4.2,2
		c-1.4,0.3-2.6,0.3-3.5,0.2c-6.1,0-12.2,0-18.2-0.1c-0.5-0.1-2.6-0.4-4.2-2.1c-1.9-2.1-1.8-4.6-1.8-5v-13.5c0-0.7,0.3-2.5,1.8-4.2
		c2.3-2.6,5.8-2.2,6.1-2.2c5.8,0,11.5,0,17.3-0.1c0.5,0,3.6-0.2,6.1,2.2C481.6,625.2,481.4,628.5,481.3,628.9L481.3,628.9z"/>
	<path class="st1" d="M474.2,655c-0.4,0-0.8,0-1.1,0h-18.7c-4.5,0-8.1-1.3-10.6-3.8c-3.6-3.7-3.7-8.6-3.7-8.9v-17.6
		c0.1-1.6,0.7-4.7,3.2-7.3c2-2.1,4.3-3.1,5.8-3.5c1.5-0.3,3-0.5,4.4-0.6c0.5,0,1.1-0.1,1.6-0.1l18.4,0.1c7.8-0.2,11,3.2,11.1,3.3
		c4.1,3.9,4,9.3,4,9.7v14.1c0,1.6-0.1,3.2-0.5,4.7c-0.4,1.7-0.8,3.5-2.3,5.2c-0.6,0.7-1.4,1.3-2.2,1.8c-1.9,1.2-3.9,2-6,2.4
		C476.5,654.9,475.4,655,474.2,655L474.2,655z M455.2,614.2c-0.5,0-1,0-1.5,0.1c-1.4,0.1-2.9,0.3-4.3,0.6c-1.4,0.4-3.5,1.2-5.3,3.2
		c-2.3,2.4-2.8,5.2-2.9,6.7v17.6c0,0,0,4.8,3.4,8.2c2.3,2.3,5.6,3.5,9.8,3.5h18.8c1.5,0.1,2.9,0,4.4-0.3c2-0.4,4-1.2,5.7-2.3
		c0.8-0.5,1.4-1,2-1.6c1.3-1.5,1.7-3.2,2.1-4.8c0.3-1.4,0.5-3,0.5-4.5v-14.2c0-0.1,0.2-5.2-3.7-8.9c0-0.1-3-3.2-10.4-3L455.2,614.2
		L455.2,614.2z M473,648.1c-0.4,0-0.8,0-1.1,0l-18.2-0.1c-0.9-0.1-2.9-0.5-4.5-2.2c-2-2.1-1.9-4.7-1.9-5.4V627
		c0.1-1,0.4-2.9,1.9-4.5c2.5-2.7,6.1-2.4,6.5-2.3l17.3-0.1c0.6,0,3.9-0.2,6.5,2.4s2.5,5.9,2.4,6.6l-0.4,12.6c0,1.1-0.3,2.8-1.5,4.1
		c-1.3,1.5-3,1.8-4.5,2.1C474.6,648,473.8,648.1,473,648.1L473,648.1z M454.8,621c-1.2,0-3.4,0.3-5,2c-1.3,1.4-1.6,3-1.6,3.9v13.4
		c0,0.7,0,2.9,1.6,4.7c1.4,1.5,3.2,1.8,3.9,1.9l18.2,0.1c1.2,0.1,2.3,0,3.4-0.2c1.4-0.3,2.9-0.6,4-1.8c1-1.1,1.2-2.5,1.2-3.5
		l0.4-12.7c0-0.6,0.2-3.5-2.1-5.8c-2.3-2.2-5.2-2.1-5.7-2.1l-17.4,0.1C455.5,621.1,455.2,621,454.8,621z"/>
</g>
<g>
	<path class="st1" d="M537.2,635.4c0.5-0.3,1.3-0.8,2-1.8c0.3-0.4,0.9-1.2,1.2-2.4c0.2-0.7,0.2-1.3,0.2-1.7c0.1-1.9,0.1-3.6,0.2-4.9
		c0-1,0-2.8-0.9-4.7c-1.4-3.2-4.1-4.6-5-5.1c0,0-2-1.3-6.7-1.2h-31.6v40.8h6.9v-15.6l25.2-0.2c0,0,6.2,0.1,6.8,6v9.7h6.9v-12.4
		C542.3,642.1,541.7,637,537.2,635.4L537.2,635.4z M534.1,626.1c0.3,5-5,5.6-5,5.6h-25.7v-11.2h25c2.3,0.1,4.3,1.2,5.2,3
		C534.1,624.5,534.1,625.5,534.1,626.1L534.1,626.1z"/>
	<path class="st1" d="M542.8,655H535v-10.2c-0.5-5.3-6-5.5-6.3-5.5l-24.7,0.2V655h-7.9v-41.8h32.1c4.8-0.1,6.9,1.2,7,1.2
		c1.3,0.6,3.8,2.2,5.1,5.3c0.7,1.5,1,3.2,1,4.9c0,1.7-0.1,3.4-0.2,5c0,0.4,0,1-0.3,1.8c-0.2,0.9-0.7,1.8-1.3,2.5
		c-0.4,0.5-0.9,1-1.4,1.4c4,2,4.5,6.5,4.6,6.7L542.8,655L542.8,655z M536,654h5.9v-11.9l0,0c0,0-0.6-4.7-4.8-6.2l-1-0.4l0.9-0.5
		c0.7-0.4,1.4-1,1.9-1.6c0.5-0.6,0.9-1.4,1.1-2.2c0.2-0.7,0.2-1.2,0.2-1.6c0.1-1.6,0.1-3.2,0.2-4.9c0-1.5-0.2-3.1-0.9-4.4
		c-1.3-2.8-3.5-4.2-4.7-4.8c-0.1,0-2-1.2-6.5-1.1h-31.1V654h5.9v-15.5l25.7-0.2c0.1,0,6.6,0.2,7.3,6.4L536,654L536,654z
		 M503.4,632.2h-0.5V620h25.5c2.6,0.1,4.7,1.4,5.7,3.3c0.4,0.8,0.5,1.8,0.5,2.8c0.2,5.4-5.3,6.1-5.4,6.1L503.4,632.2L503.4,632.2z
		 M503.9,631.2h25.2c0.1,0,4.7-0.6,4.5-5.1l0,0l0,0c0.1-0.8,0-1.6-0.4-2.3c-0.8-1.6-2.6-2.7-4.8-2.7h-24.5L503.9,631.2L503.9,631.2z
		"/>
</g>
<g>
	<defs>
		<rect id="SVGID_1_" x="255.2" y="278.7" width="6.3" height="5258.7"/>
	</defs>
	<clipPath id="SVGID_00000085252776453061662000000007956796614816662918_">
		<use xlink:href="#SVGID_1_"  style="overflow:visible;"/>
	</clipPath>
	<g transform="matrix(1 0 0 1 0 0)" style="clip-path:url(#SVGID_00000085252776453061662000000007956796614816662918_);">
		
			<use xlink:href="#Yeni_Sembol"  width="6.3" height="714" x="-3.2" y="-357" transform="matrix(1 0 0 -7.3651 258.4566 2908.0076)" style="overflow:visible;"/>
	</g>
</g>
<path class="st1" d="M560.4,596.8c0,6.7-5.3,12-12.1,12s-12.2-5.3-12.2-12s5.4-11.8,12.2-11.8S560.4,590.2,560.4,596.8z
	 M539.1,596.8c0,5.3,3.9,9.4,9.2,9.4s9-4.2,9-9.4s-3.8-9.5-9.1-9.5S539.1,591.6,539.1,596.8L539.1,596.8z M546.4,603h-2.7v-11.8
	c1.1-0.2,2.6-0.4,4.5-0.4c2.2,0,3.2,0.4,4.1,0.9c0.7,0.5,1.2,1.4,1.2,2.6c0,1.3-1,2.3-2.5,2.7v0.1c1.2,0.4,1.8,1.3,2.2,2.9
	c0.4,1.8,0.6,2.5,0.9,2.9h-3c-0.4-0.4-0.6-1.5-0.9-2.9c-0.2-1.3-0.9-1.9-2.5-1.9h-1.3V603L546.4,603z M546.5,596.3h1.3
	c1.5,0,2.7-0.5,2.7-1.7c0-1.1-0.8-1.8-2.5-1.8c-0.7,0-1.2,0.1-1.5,0.1V596.3L546.5,596.3z"/>
</svg>
