<?xml version="1.0" encoding="utf-8"?>
<!-- Generator: Adobe Illustrator 27.3.1, SVG Export Plug-In . SVG Version: 6.00 Build 0)  -->
<svg version="1.1" id="katman_1" xmlns="http://www.w3.org/2000/svg" xmlns:xlink="http://www.w3.org/1999/xlink" x="0px" y="0px"
	 viewBox="0 0 535.2 113.1" style="enable-background:new 0 0 535.2 113.1;" xml:space="preserve">
<style type="text/css">
	.st0{fill:#FFFFFF;}
	.st1{fill:none;}
</style>
<g>
	<path class="st0" d="M22.9,31.6l12.3,26.9l12.4-26.9h22.8v41.5H57.9l0.3-31h-2.1l-15.6,31H30l-15.6-31h-2.2l0.3,31H0V31.6H22.9z"/>
	<path class="st0" d="M75.9,52.9c0.3-4.3,1.7-6.6,5.2-8.3c2.6-1.2,7.6-1.7,16.5-1.7c9.6,0,11.9,0.4,14.4,2.9c1.9,2,2.5,4.2,2.5,9.6
		v17.7h-10.6v-4h-0.4c-0.9,1.9-2.1,3-4.1,3.8c-1.8,0.8-4.6,1-11.8,1c-9.8,0-12.8-2.2-12.8-9.1c0-5.3,2-8.2,6.3-9.3
		c2.7-0.8,5.5-0.9,13.6-0.9c5.1,0,6.6,0.4,8.3,2.3h0.5v-1.5c0-4.6-0.9-5.2-7.5-5.2c-7.9,0-8.7,0.2-9,2.9L75.9,52.9L75.9,52.9z
		 M85.7,63.8c0,2.4,1.7,3,7.6,3c7.8,0,9.9-0.8,9.9-3.4c0-1.2-0.7-2-1.9-2.5c-0.7-0.2-2.4-0.3-7.1-0.3C87.5,60.7,85.7,61.3,85.7,63.8
		L85.7,63.8z"/>
	<path class="st0" d="M130.1,31.6v21.6h2.4l10.1-9.6h14.7l-15.2,13.7l17.3,15.7h-14.6l-11.8-11.8h-2.8v11.8h-11V31.6H130.1
		L130.1,31.6z"/>
	<path class="st0" d="M171,43.7v4.4h0.6c2.1-3.7,5.2-5.2,11.3-5.2c8.9,0,11.9,3,11.9,11.8v2h-10.4c0-4.3-1.2-5.5-5.8-5.5
		c-2.5,0-4.5,0.8-5.6,2.1c-1.1,1.4-1.4,3-1.4,7.6v12.2h-11V43.7L171,43.7L171,43.7z"/>
	<path class="st0" d="M208.8,31.6v8.3h-11v-8.3C197.8,31.6,208.8,31.6,208.8,31.6z M208.8,43.7v29.4h-11V43.7H208.8z"/>
</g>
<g>
	<path class="st0" d="M299.5,42.5c-3.4-4.7-8.7-5.3-9.5-5.4c-11.2-0.1-22.4-0.2-33.5-0.3v40.9h31.9c1.3,0,3.1-0.2,5.1-0.8
		c1.3-0.4,3-0.9,4.5-2.1c3-2.3,3.7-5.9,3.9-7.3V50.8C301.9,49.6,301.9,46,299.5,42.5L299.5,42.5z M295.2,63c0.3,9.2-8.1,8.5-8.1,8.5
		h-23.8V43.2h23.3c8.6,0.7,8.6,7.5,8.6,7.5L295.2,63L295.2,63z"/>
	<path class="st0" d="M256.4,78.2h-0.5V36.3l34,0.3c1.5,0.2,6.6,1,10,5.6c2.4,3.3,2.5,6.8,2.5,8.6v16.8c-0.3,2-1.2,5.5-4.1,7.7
		c-1.6,1.2-3.4,1.8-4.6,2.1c-1.7,0.5-3.5,0.8-5.3,0.8H256.4L256.4,78.2z M256.9,77.2h31.4c1.7,0,3.4-0.3,5-0.8
		c1.2-0.4,2.9-0.9,4.3-2c2.6-2,3.5-5.3,3.7-7V50.8c0.1-1.7-0.1-4.9-2.3-8l0,0c-3.1-4.3-7.8-5.1-9.2-5.2l-33-0.2
		C256.9,37.3,256.9,77.2,256.9,77.2z M287.6,72c-0.3,0-0.5,0-0.5,0h-24.3V42.7h23.8c9,0.7,9.1,8,9.1,8V63c0.1,3-0.7,5.4-2.4,6.9
		C291.3,71.8,288.7,72,287.6,72L287.6,72z M263.8,71h23.3c0.1,0,3.3,0.3,5.5-1.8c1.4-1.4,2.1-3.4,2.1-6.2V50.8
		c0-0.3-0.1-6.5-8.1-7.1h-22.8L263.8,71L263.8,71z"/>
</g>
<g>
	<path class="st0" d="M352.3,65.8h6.2c0,0,0.5,10.8-9.1,11.5l-24.7,0.5c0,0-15.2,1.6-15-13.9V49.6c0,0-1.6-12.8,14-12.8h18.2
		c0,0,16.2-1.6,16.6,11.8l-6.6-0.1c0,0,0.7-6.1-8.9-5.5l-17,0.1c0,0-6.1-0.5-8.1,2.2c0,0-1.5,1-1.8,4.9l-0.1,3.7h27.6l-0.1,5.7
		l-27.7,0.1l0.1,4c0,0.6,0,1.5,0.3,2.4c0.4,1.6,1.2,2.6,1.8,3.2c0.4,0.3,0.8,0.7,1.4,1c1.9,1.1,3.7,1.3,4.8,1.3
		c7.4,0.1,14.8,0.1,22.2,0.2c0.2,0,0.5-0.1,0.7-0.1c1.2-0.2,2.2-0.7,2.9-1.2c0.4-0.3,0.9-0.7,1.3-1.3
		C352.2,67.8,352.3,66.4,352.3,65.8L352.3,65.8z"/>
	<path class="st0" d="M323.4,78.3c-2.2,0-6.8-0.4-10.2-3.5c-2.7-2.5-4.1-6.2-4-11V49.6c0-0.2-0.6-5.2,2.8-9
		c2.5-2.8,6.4-4.3,11.7-4.3h18.2c0.3,0,8.3-0.8,13.3,3.6c2.4,2.1,3.7,5,3.8,8.6l0,0.5l-7.7-0.1l0.1-0.5c0-0.1,0.2-1.7-1.2-3.1
		c-1.4-1.4-3.8-2-7.2-1.8l-17,0.1c-0.1,0-5.9-0.4-7.8,2l-0.1,0.1c0,0-1.3,1-1.6,4.5l-0.1,3.2h27.6l-0.1,6.7l-27.7,0.1l0.1,3.5
		c0,0.8,0.1,1.6,0.3,2.3c0.3,1.1,0.9,2.1,1.7,3c0.4,0.3,0.8,0.6,1.2,0.9c1.3,0.8,2.9,1.2,4.5,1.2h0l22.3,0.2c0.2,0,0.4,0,0.6-0.1
		c0.9-0.2,1.8-0.6,2.7-1.1c0.5-0.3,0.8-0.7,1.2-1.2c0.8-1.1,1-2.4,1-3.2v-0.5h7.2l0,0.5c0,0.1,0.4,11.3-9.6,12.1l-24.7,0.5
		C324.7,78.2,324.2,78.3,323.4,78.3L323.4,78.3z M343.4,37.3c-0.9,0-1.4,0-1.4,0h-18.2c-5,0-8.7,1.3-11,3.9
		c-3.1,3.5-2.5,8.3-2.5,8.3v14.2c-0.1,4.5,1.2,7.9,3.7,10.2c4.2,3.9,10.7,3.2,10.8,3.2l24.7-0.5c8-0.6,8.6-8.5,8.6-10.5h-5.2
		c-0.1,0.9-0.3,2.2-1.2,3.3c-0.4,0.5-0.9,1-1.4,1.4c-1,0.7-2,1.1-3.1,1.3c-0.3,0.1-0.5,0.1-0.8,0.1l-22.3-0.2h0
		c-1.8,0-3.6-0.5-5-1.3c-0.5-0.3-1-0.7-1.5-1.1c-0.9-1.1-1.5-2.2-1.9-3.5c-0.2-0.8-0.4-1.7-0.3-2.6l-0.1-4.5l27.8-0.1l0-4.7h-27.6
		l0.1-4.2c0.3-3.6,1.6-5,2-5.2c2.2-2.8,8.3-2.4,8.5-2.4l17-0.1c3.7-0.2,6.4,0.5,7.9,2.2c1.2,1.2,1.4,2.6,1.4,3.4l5.5,0
		c-0.2-3.1-1.4-5.6-3.4-7.4C351.1,37.7,345.9,37.3,343.4,37.3L343.4,37.3z"/>
</g>
<g>
	<path class="st0" d="M403.4,49.6h7c0,0,0.3-3.9-1.4-7c0,0-2.6-5.7-9.7-5.5h-20.1c-1.1,0-2.4,0-3.8,0.2c-2.7,0.3-5,1.1-6.7,1.8
		c-0.8,0.4-1.9,1-2.8,2c-2.5,2.6-2.8,5.9-2.8,7v15.4c0,0-0.1,7.5,3.2,10.2c0,0,2.1,3.2,7.9,4H398c0,0,5.3,0.4,8.9-3
		c0.5-0.4,1-0.9,1.4-1.5c1.5-2,1.7-4.2,1.7-5.3c0-0.9,0-1.8,0-2.7c-2.2,0-4.4,0-6.6,0c0,0.5,0,1.3-0.3,2.1c-0.1,0.4-0.3,0.8-0.5,1.1
		c-0.4,0.6-1.3,1.8-2.9,2.5c-0.5,0.2-1,0.3-1.4,0.4c-7.1,0-14.2,0-21.3-0.1c0,0-6.2,0.3-7.1-5.9l-0.1-13.9c0,0,0-8.3,8.7-8.1
		l17.4,0.1C395.9,43.5,403,43.3,403.4,49.6L403.4,49.6z"/>
	<path class="st0" d="M398.6,78.3c-0.4,0-0.6,0-0.6,0h-23.7c-5.6-0.8-7.9-3.7-8.2-4.2c-3.4-2.8-3.3-10.2-3.3-10.6V48.1
		c0-1.7,0.5-4.8,2.9-7.3c0.9-0.9,1.9-1.6,3-2.2c2.2-0.9,4.5-1.5,6.8-1.8c1.3-0.2,2.6-0.2,3.8-0.2h20c7.3-0.2,10.1,5.7,10.2,5.8
		c1.7,3.1,1.4,7.1,1.4,7.2l0,0.5h-8l0-0.5c-0.4-5.8-6.6-5.7-6.9-5.7l-17.4-0.1c-2.5,0-4.5,0.7-5.9,2c-2.3,2.2-2.3,5.6-2.3,5.6
		l0.1,13.9c0.8,5.5,6.3,5.4,6.6,5.4l21.4,0.1c0.4-0.1,0.8-0.2,1.2-0.3c1.4-0.6,2.2-1.5,2.7-2.3c0.2-0.3,0.3-0.7,0.4-1
		c0.2-0.6,0.3-1.3,0.3-1.9v-0.5l7.6,0l0,3.2c0,1.4-0.3,3.6-1.8,5.6c-0.4,0.6-0.9,1.1-1.5,1.6C404.2,78,400.2,78.3,398.6,78.3
		L398.6,78.3z M398,77.3c0.1,0,5.1,0.3,8.6-2.8c0.5-0.4,1-0.9,1.4-1.4c1.3-1.8,1.6-3.7,1.6-5l0-2.2l-5.6,0c0,0.6-0.1,1.2-0.3,1.7
		c-0.1,0.4-0.3,0.8-0.5,1.2c-0.6,0.9-1.5,2-3.1,2.7c-0.5,0.2-1,0.3-1.6,0.4L377,71.8c0,0-6.6,0.2-7.6-6.3l-0.1-13.9
		c0-0.2,0-3.8,2.6-6.3c1.6-1.6,3.8-2.4,6.6-2.3L396,43c0.1,0,7.1-0.1,7.9,6.2h6.1c0-1.1-0.1-4-1.3-6.3c-0.1-0.2-2.6-5.4-9.2-5.2
		h-20.1c-1.2,0-2.5,0-3.7,0.2c-2.2,0.3-4.5,0.9-6.6,1.7c-1,0.5-1.9,1.1-2.7,1.9c-2.2,2.3-2.6,5.1-2.6,6.6v15.4c0,0.1,0,7.3,3,9.8
		l0.1,0.1c0,0,2.1,3.1,7.5,3.8L398,77.3L398,77.3z"/>
</g>
<g>
	<path class="st0" d="M463.1,49.6c0,0,0.3-5.4-3.8-9.3c0,0-3-3.4-10.8-3.2c-6.1,0-12.3-0.1-18.4-0.1c-0.5,0-1,0-1.6,0.1
		c-1.6,0.1-3,0.3-4.3,0.6c-1,0.3-3.5,1.1-5.6,3.3c-2.6,2.8-3,6-3.1,7c0,5.9,0,11.7,0,17.6c0,0-0.1,12.1,13.7,12.1H448
		c1.2,0.1,2.7,0.1,4.5-0.3c2.6-0.5,4.6-1.6,5.9-2.4c0.6-0.3,1.4-0.9,2.1-1.8c1.4-1.6,1.8-3.3,2.2-5c0.3-1.1,0.5-2.7,0.5-4.6
		L463.1,49.6L463.1,49.6z M456.2,52.3c-0.1,4.2-0.3,8.4-0.4,12.6c0,0.8-0.2,2.4-1.4,3.8c-1.2,1.3-2.8,1.7-4.2,2
		c-1.4,0.3-2.6,0.3-3.5,0.2c-6.1,0-12.2,0-18.2-0.1c-0.5-0.1-2.6-0.3-4.2-2.1c-1.9-2.1-1.8-4.6-1.8-5V50.2c0-0.7,0.3-2.5,1.8-4.2
		c2.3-2.5,5.8-2.2,6.1-2.2c5.8,0,11.5,0,17.3-0.1c0.5,0,3.6-0.2,6.1,2.2C456.4,48.6,456.2,51.8,456.2,52.3L456.2,52.3z"/>
	<path class="st0" d="M449.1,78.3c-0.4,0-0.8,0-1.1,0h-18.7c-4.5,0-8.1-1.3-10.6-3.8c-3.6-3.7-3.7-8.7-3.7-8.9l0-17.6
		c0.1-1.6,0.7-4.7,3.2-7.3c2-2.1,4.3-3.1,5.8-3.5c1.5-0.3,3-0.5,4.4-0.6c0.5,0,1.1-0.1,1.6-0.1l18.4,0.1c7.8-0.2,11,3.2,11.1,3.3
		c4.1,3.9,4,9.3,4,9.7v14.1c0,1.6-0.1,3.2-0.5,4.7c-0.4,1.7-0.8,3.5-2.3,5.2c-0.6,0.7-1.4,1.3-2.2,1.8c-1.9,1.2-3.9,2-6,2.4
		C451.4,78.2,450.3,78.3,449.1,78.3L449.1,78.3z M430.1,37.6c-0.5,0-1,0-1.5,0.1c-1.4,0.1-2.9,0.3-4.3,0.6c-1.4,0.4-3.5,1.2-5.3,3.2
		c-2.3,2.4-2.8,5.2-2.9,6.7l0,17.5c0,0,0,4.8,3.4,8.2c2.3,2.3,5.6,3.5,9.8,3.5H448c1.5,0.1,2.9,0,4.4-0.3c2-0.4,4-1.2,5.7-2.3
		c0.8-0.5,1.4-1,2-1.7c1.3-1.5,1.7-3.2,2.1-4.8c0.3-1.4,0.5-3,0.5-4.5V49.6c0,0,0.2-5.2-3.7-8.9c0-0.1-3-3.2-10.4-3L430.1,37.6
		L430.1,37.6z M447.8,71.4c-0.4,0-0.8,0-1.1-0.1l-18.2-0.1c-0.9-0.1-2.9-0.5-4.5-2.2c-2-2.1-1.9-4.7-1.9-5.4V50.3
		c0.1-1,0.4-2.9,1.9-4.5c2.5-2.7,6.1-2.4,6.5-2.3l17.3-0.1c0.6,0,3.9-0.2,6.5,2.4c2.6,2.6,2.5,5.9,2.4,6.6l-0.4,12.6
		c0,1.1-0.3,2.8-1.5,4.1c-1.3,1.5-3,1.8-4.5,2.1C449.5,71.3,448.7,71.4,447.8,71.4L447.8,71.4z M429.7,44.4c-1.2,0-3.4,0.3-5,2
		c-1.3,1.4-1.6,3-1.6,3.9v13.4c0,0.7,0,2.9,1.6,4.7c1.4,1.5,3.2,1.8,3.9,1.9l18.2,0.1c1.2,0.1,2.3,0,3.4-0.2c1.4-0.3,2.9-0.6,4-1.8
		c1-1.1,1.2-2.5,1.2-3.5l0.4-12.7c0-0.6,0.2-3.5-2.1-5.8c-2.3-2.2-5.2-2.1-5.7-2.1l-17.4,0.1C430.4,44.4,430.1,44.4,429.7,44.4z"/>
</g>
<g>
	<path class="st0" d="M512.1,58.7c0.5-0.3,1.3-0.8,2-1.8c0.3-0.4,0.9-1.2,1.2-2.4c0.2-0.7,0.2-1.3,0.2-1.7c0.1-1.9,0.1-3.6,0.2-4.9
		c0-1,0-2.8-0.9-4.7c-1.4-3.2-4.1-4.6-5-5.1c0,0-2-1.3-6.7-1.2h-31.6v40.8h6.9V62.3l25.2-0.2c0,0,6.2,0.1,6.8,6v9.7h6.9V65.4
		C517.2,65.4,516.6,60.4,512.1,58.7L512.1,58.7z M508.9,49.5c0.3,5-5,5.6-5,5.6h-25.7V43.8h25c2.3,0.1,4.4,1.2,5.2,3
		C509,47.9,509,48.8,508.9,49.5L508.9,49.5z"/>
	<path class="st0" d="M517.7,78.3h-7.9V68.1c-0.5-5.3-6-5.5-6.3-5.5l-24.7,0.2v15.6H471V36.6h32.1c4.8-0.1,6.9,1.2,7,1.2
		c1.3,0.6,3.7,2.2,5.1,5.3c0.7,1.5,1,3.2,1,4.9c0,1.7-0.1,3.4-0.2,5c0,0.4,0,1-0.3,1.8c-0.2,0.9-0.7,1.8-1.3,2.5
		c-0.4,0.5-0.9,1-1.4,1.4c4,2,4.5,6.5,4.6,6.7L517.7,78.3L517.7,78.3z M510.8,77.3h5.9V65.4l0,0c0,0-0.6-4.7-4.8-6.2l-1-0.4l0.9-0.5
		c0.7-0.4,1.4-1,1.9-1.6c0.5-0.7,0.9-1.4,1.1-2.2c0.2-0.7,0.2-1.2,0.2-1.6c0.1-1.6,0.1-3.2,0.2-4.9c0-1.5-0.2-3.1-0.9-4.4
		c-1.3-2.8-3.5-4.2-4.7-4.8c-0.1,0-2-1.2-6.5-1.1H472v39.8h5.9V61.8l25.7-0.2c0.1,0,6.6,0.2,7.3,6.4L510.8,77.3L510.8,77.3z
		 M478.3,55.6h-0.5V43.3h25.5c2.6,0.1,4.7,1.3,5.6,3.3c0.4,0.8,0.5,1.8,0.5,2.8c0.2,5.3-5.3,6.1-5.4,6.1L478.3,55.6L478.3,55.6z
		 M478.8,54.6H504c0.1,0,4.7-0.6,4.5-5.1v0v0c0.1-0.8,0-1.6-0.4-2.3c-0.8-1.6-2.6-2.7-4.8-2.7h-24.5L478.8,54.6L478.8,54.6z"/>
</g>
<g>
	<rect x="230.6" y="0.5" class="st1" width="5.3" height="112.1"/>
	<path class="st1" d="M236.4,113.1h-6.3V0h6.3V113.1z M231.1,112.1h4.3V1h-4.3V112.1z"/>
</g>
<path class="st0" d="M535.2,20.1c0,6.7-5.3,12-12.1,12s-12.2-5.3-12.2-12s5.4-11.8,12.2-11.8S535.2,13.6,535.2,20.1z M514,20.1
	c0,5.3,3.9,9.4,9.2,9.4s9-4.2,9-9.4s-3.8-9.5-9.1-9.5S514,15,514,20.1L514,20.1z M521.3,26.3h-2.7V14.5c1.1-0.2,2.6-0.4,4.5-0.4
	c2.2,0,3.2,0.4,4.1,0.9c0.7,0.5,1.2,1.4,1.2,2.6c0,1.3-1,2.3-2.5,2.7v0.1c1.2,0.4,1.8,1.3,2.2,2.9c0.4,1.8,0.6,2.5,0.9,3h-3
	c-0.4-0.4-0.6-1.5-0.9-2.9c-0.2-1.3-0.9-1.9-2.5-1.9h-1.3L521.3,26.3L521.3,26.3z M521.3,19.6h1.3c1.5,0,2.7-0.5,2.7-1.7
	c0-1.1-0.8-1.8-2.5-1.8c-0.7,0-1.2,0.1-1.5,0.1L521.3,19.6L521.3,19.6z"/>
</svg>
