<?xml version="1.0" encoding="utf-8"?>
<!-- Generator: Adobe Illustrator 26.3.1, SVG Export Plug-In . SVG Version: 6.00 Build 0)  -->
<svg version="1.1" id="katman_1" xmlns="http://www.w3.org/2000/svg" xmlns:xlink="http://www.w3.org/1999/xlink" x="0px" y="0px"
	 viewBox="0 0 193.8 43.2" style="enable-background:new 0 0 193.8 43.2;" xml:space="preserve">
<style type="text/css">
	.st0{enable-background:new    ;}
	.st1{fill:#FFFFFF;}
	.st2{clip-path:url(#SVGID_00000065759368839252121950000003831647665642355593_);}
	.st3{fill:#E2610E;}
	.st4{fill:#EE9400;}
	.st5{fill:#DF252E;}
</style>
<g class="st0">
	<path class="st1" d="M59.3,13.1H68c4.1,0,7.1,2.6,7.1,6.4s-3,6.4-7.1,6.4h-4v5.8h-4.6V13.1H59.3z M67.5,21.7c1.6,0,2.7-0.9,2.7-2.2
		c0-1.3-1.1-2.2-2.7-2.2H64v4.3h3.5V21.7z"/>
</g>
<g class="st0">
	<path class="st1" d="M90.8,27.6v4.1H77.3V13.1h4.6v14.5H90.8z"/>
</g>
<g class="st0">
	<path class="st1" d="M97.5,17.3h-5.7v-4.1h15.9v4.1h-5.6v14.5h-4.6C97.5,31.8,97.5,17.3,97.5,17.3z"/>
</g>
<g class="st0">
	<path class="st1" d="M124,24.2l-7.6-11h1.7l6.6,9.6l6.6-9.6h1.7l-7.6,11v7.6H124V24.2z"/>
	<path class="st1" d="M136.3,30.6l12-16.2h-11.8v-1.3h13.6v1.1l-12,16.2h12.1v1.3h-13.9L136.3,30.6L136.3,30.6z"/>
	<path class="st1" d="M166.8,30.4v1.3h-11.9V13.1h1.4v17.3H166.8z"/>
	<path class="st1" d="M171.6,13.1h1.4l7.3,13.7l7.3-13.7h1.4v18.6h-1.4V15.9l-7.3,13.7L173,15.9v15.8h-1.4V13.1z"/>
</g>
<g>
	<g>
		<g>
			<defs>
				<circle id="SVGID_1_" cx="21.6" cy="21.5" r="21"/>
			</defs>
			<clipPath id="SVGID_00000036959929852027589180000011929703746010660497_">
				<use xlink:href="#SVGID_1_"  style="overflow:visible;"/>
			</clipPath>
			<g style="clip-path:url(#SVGID_00000036959929852027589180000011929703746010660497_);">
				<polygon class="st3" points="0.1,0.2 0.1,10.7 32.2,43.2 43,43.2 43.1,32.7 11,0.2 				"/>
				<polygon class="st4" points="43,21.5 43,0 21.6,0 				"/>
				<polygon class="st5" points="0,21.7 0,43 21.2,43 				"/>
			</g>
		</g>
	</g>
</g>
</svg>
